<svg xmlns="http://www.w3.org/2000/svg" viewBox="0 0 30 30" width="30" height="30">
  <defs>
    <linearGradient id="orangeGradient" x1="0%" y1="0%" x2="100%" y2="100%">
      <stop offset="0%" style="stop-color:#ff6b00;stop-opacity:1" />
      <stop offset="50%" style="stop-color:#ff8c00;stop-opacity:1" />
      <stop offset="100%" style="stop-color:#ffa500;stop-opacity:1" />
    </linearGradient>
  </defs>
  <path d="M 14.007 0.866 C 14.167 -0.289 15.834 -0.289 15.994 0.866 L 17.02 8.275 C 17.358 10.72 19.281 12.643 21.726 12.981 L 29.135 14.007 C 30.29 14.167 30.29 15.834 29.135 15.994 L 21.726 17.02 C 19.281 17.358 17.358 19.281 17.02 21.726 L 15.994 29.135 C 15.834 30.29 14.167 30.29 14.007 29.135 L 12.981 21.726 C 12.643 19.281 10.72 17.358 8.275 17.02 L 0.866 15.994 C -0.289 15.834 -0.289 14.167 0.866 14.007 L 8.275 12.981 C 10.72 12.643 12.643 10.72 12.981 8.275 Z" fill="url(#orangeGradient)"/>
</svg>
